<svg width="499.008" height="74.14" viewBox="0 0 499.008 74.14" xmlns="http://www.w3.org/2000/svg"><g id="svgGroup" stroke-linecap="round" fill-rule="evenodd" font-size="9pt" stroke="#000" stroke-width="0.25mm" fill="#000" style="stroke:#000;stroke-width:0.25mm;fill:#000"><path d="M 1.854 68.674 A 11.059 11.059 0 0 0 5.608 72.667 Q 8.308 74.567 12.508 74.017 Q 16.708 73.467 20.708 71.667 A 9.361 9.361 0 0 0 20.941 71.577 Q 22.164 71.089 23.722 70.09 A 34.093 34.093 0 0 0 25.358 68.967 A 50.541 50.541 0 0 0 26.065 68.443 A 55.905 55.905 0 0 0 30.758 64.467 Q 32.414 62.904 33.621 61.498 A 23.409 23.409 0 0 0 34.908 59.867 A 88.545 88.545 0 0 0 36.796 56.959 A 68.8 68.8 0 0 0 38.858 53.417 A 33.537 33.537 0 0 0 39.719 51.718 Q 40.18 50.735 40.5 49.858 A 14.074 14.074 0 0 0 41.008 48.167 Q 41.408 46.067 41.408 44.067 A 10.122 10.122 0 0 0 41.31 42.63 A 7.794 7.794 0 0 0 40.708 40.517 A 4.456 4.456 0 0 0 39.682 39.081 A 5.29 5.29 0 0 0 38.308 38.167 Q 36.008 37.067 33.008 36.717 A 35.151 35.151 0 0 0 32.034 36.617 Q 29.581 36.399 27.408 36.567 Q 25.499 36.714 24.398 36.968 A 6.003 6.003 0 0 0 23.708 37.167 Q 22.608 38.267 22.508 39.367 Q 22.447 40.038 22.684 40.709 A 4.211 4.211 0 0 0 23.108 41.567 A 7.503 7.503 0 0 0 24.45 42.015 Q 25.725 42.313 27.208 42.217 Q 28.881 42.108 31.294 42.289 A 59.303 59.303 0 0 1 33.208 42.467 A 3.986 3.986 0 0 1 33.232 42.466 Q 35.125 42.382 35.113 44.204 A 3.757 3.757 0 0 1 35.108 44.367 A 7.084 7.084 0 0 1 35.091 44.614 Q 34.98 45.917 34.372 47.658 A 26.142 26.142 0 0 1 33.658 49.467 A 82.431 82.431 0 0 1 33.315 50.243 A 91.428 91.428 0 0 1 30.608 55.767 A 28.388 28.388 0 0 1 30.495 55.948 A 30.388 30.388 0 0 1 26.258 61.217 A 35.679 35.679 0 0 1 24.331 63.01 A 29.007 29.007 0 0 1 21.058 65.467 A 18.551 18.551 0 0 1 20.251 65.956 Q 19.231 66.54 18.264 66.907 A 9.558 9.558 0 0 1 16.108 67.467 Q 12.04 68.848 9.739 68.345 A 3.991 3.991 0 0 1 8.508 67.867 Q 6.208 66.467 5.958 62.767 Q 5.797 60.387 6.029 57.512 A 54.959 54.959 0 0 1 6.408 54.167 A 21.313 21.313 0 0 1 6.417 54.091 Q 6.556 52.945 6.872 51.357 A 73.155 73.155 0 0 1 7.208 49.767 Q 7.808 47.067 8.458 44.367 A 211.945 211.945 0 0 1 8.749 43.172 Q 9.202 41.339 9.508 40.267 A 75.634 75.634 0 0 1 10.403 37.184 A 64.343 64.343 0 0 1 13.158 29.917 Q 15.308 25.167 18.008 20.467 A 22.703 22.703 0 0 1 19.037 18.634 A 29.148 29.148 0 0 1 20.608 16.367 A 62.537 62.537 0 0 1 21.608 15.088 A 53.248 53.248 0 0 1 23.808 12.517 Q 25.408 10.767 26.408 9.867 A 8.562 8.562 0 0 1 27.24 9.279 A 9.29 9.29 0 0 1 29.908 8.167 A 16.303 16.303 0 0 1 30.474 8.036 Q 31.997 7.712 33.462 7.712 A 13.163 13.163 0 0 1 33.808 7.717 A 9.361 9.361 0 0 1 34.625 7.772 Q 35.231 7.842 35.737 7.992 A 4.21 4.21 0 0 1 36.808 8.467 Q 38.408 9.267 39.808 10.017 A 5.182 5.182 0 0 1 40.684 10.616 Q 41.619 11.399 42.508 12.767 A 2.985 2.985 0 0 0 42.738 12.997 Q 43.529 13.703 44.358 13.267 A 3.539 3.539 0 0 0 45.368 12.458 A 4.98 4.98 0 0 0 45.958 11.617 A 5.879 5.879 0 0 0 46.255 11.019 Q 46.521 10.391 46.521 9.886 A 1.769 1.769 0 0 0 46.508 9.667 A 4.083 4.083 0 0 0 46.483 9.211 A 3.149 3.149 0 0 0 45.858 7.617 A 27.592 27.592 0 0 1 45.545 7.199 Q 45.277 6.835 44.987 6.417 A 51.63 51.63 0 0 1 44.408 5.567 A 2.314 2.314 0 0 0 44.377 5.536 Q 43.837 5.016 42.457 4.333 A 26.919 26.919 0 0 0 41.458 3.867 A 30.036 30.036 0 0 0 40.311 3.385 A 34.273 34.273 0 0 0 36.608 2.167 A 17.983 17.983 0 0 0 36.241 2.082 Q 34.472 1.69 32.76 1.69 A 14.572 14.572 0 0 0 29.458 2.067 Q 26.924 2.654 25.496 3.242 A 7.743 7.743 0 0 0 24.608 3.667 A 7.074 7.074 0 0 0 24.551 3.701 Q 22.851 4.722 19.458 8.017 A 31.158 31.158 0 0 0 19.229 8.241 Q 17.517 9.938 15.891 12.07 A 50.497 50.497 0 0 0 12.908 16.467 A 29.427 29.427 0 0 0 12.855 16.556 Q 11.673 18.542 10.108 21.867 A 124.482 124.482 0 0 0 9.212 23.815 A 144.625 144.625 0 0 0 6.958 29.117 Q 5.408 32.967 4.108 36.567 Q 2.208 42.567 1.058 48.917 Q -0.092 55.267 0.008 61.467 A 12.8 12.8 0 0 0 0.002 61.866 Q 0.002 62.92 0.176 63.968 A 14.42 14.42 0 0 0 1.408 67.817 A 13.619 13.619 0 0 0 1.854 68.674 Z M 247.054 68.674 A 11.059 11.059 0 0 0 250.808 72.667 Q 253.508 74.567 257.708 74.017 Q 261.908 73.467 265.908 71.667 A 9.361 9.361 0 0 0 266.141 71.577 Q 267.364 71.089 268.922 70.09 A 34.093 34.093 0 0 0 270.558 68.967 A 50.541 50.541 0 0 0 271.265 68.443 A 55.905 55.905 0 0 0 275.958 64.467 Q 277.614 62.904 278.821 61.498 A 23.409 23.409 0 0 0 280.108 59.867 A 88.545 88.545 0 0 0 281.996 56.959 A 68.8 68.8 0 0 0 284.058 53.417 A 33.537 33.537 0 0 0 284.919 51.718 Q 285.38 50.735 285.7 49.858 A 14.074 14.074 0 0 0 286.208 48.167 Q 286.608 46.067 286.608 44.067 A 10.122 10.122 0 0 0 286.51 42.63 A 7.794 7.794 0 0 0 285.908 40.517 A 4.456 4.456 0 0 0 284.882 39.081 A 5.29 5.29 0 0 0 283.508 38.167 Q 281.208 37.067 278.208 36.717 A 35.151 35.151 0 0 0 277.234 36.617 Q 274.781 36.399 272.608 36.567 Q 270.699 36.714 269.598 36.968 A 6.003 6.003 0 0 0 268.908 37.167 Q 267.808 38.267 267.708 39.367 Q 267.647 40.038 267.884 40.709 A 4.211 4.211 0 0 0 268.308 41.567 A 7.503 7.503 0 0 0 269.65 42.015 Q 270.925 42.313 272.408 42.217 Q 274.081 42.108 276.494 42.289 A 59.303 59.303 0 0 1 278.408 42.467 A 3.986 3.986 0 0 1 278.432 42.466 Q 280.325 42.382 280.313 44.204 A 3.757 3.757 0 0 1 280.308 44.367 A 7.084 7.084 0 0 1 280.291 44.614 Q 280.18 45.917 279.572 47.658 A 26.142 26.142 0 0 1 278.858 49.467 A 82.431 82.431 0 0 1 278.515 50.243 A 91.428 91.428 0 0 1 275.808 55.767 A 28.388 28.388 0 0 1 275.695 55.948 A 30.388 30.388 0 0 1 271.458 61.217 A 35.679 35.679 0 0 1 269.531 63.01 A 29.007 29.007 0 0 1 266.258 65.467 A 18.551 18.551 0 0 1 265.451 65.956 Q 264.431 66.54 263.464 66.907 A 9.558 9.558 0 0 1 261.308 67.467 Q 257.24 68.848 254.939 68.345 A 3.991 3.991 0 0 1 253.708 67.867 Q 251.408 66.467 251.158 62.767 Q 250.997 60.387 251.229 57.512 A 54.959 54.959 0 0 1 251.608 54.167 A 21.313 21.313 0 0 1 251.617 54.091 Q 251.756 52.945 252.072 51.357 A 73.155 73.155 0 0 1 252.408 49.767 Q 253.008 47.067 253.658 44.367 A 211.945 211.945 0 0 1 253.949 43.172 Q 254.402 41.339 254.708 40.267 A 75.634 75.634 0 0 1 255.603 37.184 A 64.343 64.343 0 0 1 258.358 29.917 Q 260.508 25.167 263.208 20.467 A 22.703 22.703 0 0 1 264.237 18.634 A 29.148 29.148 0 0 1 265.808 16.367 A 62.537 62.537 0 0 1 266.808 15.088 A 53.248 53.248 0 0 1 269.008 12.517 Q 270.608 10.767 271.608 9.867 A 8.562 8.562 0 0 1 272.44 9.279 A 9.29 9.29 0 0 1 275.108 8.167 A 16.303 16.303 0 0 1 275.674 8.036 Q 277.197 7.712 278.662 7.712 A 13.163 13.163 0 0 1 279.008 7.717 A 9.361 9.361 0 0 1 279.825 7.772 Q 280.431 7.842 280.937 7.992 A 4.21 4.21 0 0 1 282.008 8.467 Q 283.608 9.267 285.008 10.017 A 5.182 5.182 0 0 1 285.884 10.616 Q 286.819 11.399 287.708 12.767 A 2.985 2.985 0 0 0 287.938 12.997 Q 288.729 13.703 289.558 13.267 A 3.539 3.539 0 0 0 290.568 12.458 A 4.98 4.98 0 0 0 291.158 11.617 A 5.879 5.879 0 0 0 291.455 11.019 Q 291.721 10.391 291.721 9.886 A 1.769 1.769 0 0 0 291.708 9.667 A 4.083 4.083 0 0 0 291.683 9.211 A 3.149 3.149 0 0 0 291.058 7.617 A 27.592 27.592 0 0 1 290.745 7.199 Q 290.477 6.835 290.187 6.417 A 51.63 51.63 0 0 1 289.608 5.567 A 2.314 2.314 0 0 0 289.577 5.536 Q 289.037 5.016 287.657 4.333 A 26.919 26.919 0 0 0 286.658 3.867 A 30.036 30.036 0 0 0 285.511 3.385 A 34.273 34.273 0 0 0 281.808 2.167 A 17.983 17.983 0 0 0 281.441 2.082 Q 279.672 1.69 277.96 1.69 A 14.572 14.572 0 0 0 274.658 2.067 Q 272.124 2.654 270.696 3.242 A 7.743 7.743 0 0 0 269.808 3.667 A 7.074 7.074 0 0 0 269.751 3.701 Q 268.051 4.722 264.658 8.017 A 31.158 31.158 0 0 0 264.429 8.241 Q 262.717 9.938 261.091 12.07 A 50.497 50.497 0 0 0 258.108 16.467 A 29.427 29.427 0 0 0 258.055 16.556 Q 256.873 18.542 255.308 21.867 A 124.482 124.482 0 0 0 254.412 23.815 A 144.625 144.625 0 0 0 252.158 29.117 Q 250.608 32.967 249.308 36.567 Q 247.408 42.567 246.258 48.917 Q 245.108 55.267 245.208 61.467 A 12.8 12.8 0 0 0 245.202 61.866 Q 245.202 62.92 245.376 63.968 A 14.42 14.42 0 0 0 246.608 67.817 A 13.619 13.619 0 0 0 247.054 68.674 Z M 457.308 42.267 Q 456.308 42.267 455.508 41.717 Q 454.708 41.167 454.108 40.467 A 1.737 1.737 0 0 1 454.019 39.914 Q 454.019 39.684 454.076 39.442 A 2.574 2.574 0 0 1 454.158 39.167 Q 454.408 38.467 455.408 35.967 Q 456.01 34.678 456.537 33.647 A 48.656 48.656 0 0 1 456.708 33.317 Q 457.308 32.167 457.808 31.767 A 0.797 0.797 0 0 0 457.922 31.617 Q 458.023 31.452 458.108 31.185 A 4.025 4.025 0 0 0 458.158 31.017 Q 458.307 30.471 458.406 29.778 A 13.626 13.626 0 0 0 458.408 29.767 Q 458.808 29.567 459.408 28.467 Q 460.008 27.367 460.708 26.067 Q 461.244 25.148 462.044 23.672 A 198.412 198.412 0 0 0 462.558 22.717 Q 463.708 20.567 464.708 18.467 Q 467.005 14.409 468.51 11.816 A 266.017 266.017 0 0 1 469.358 10.367 Q 470.781 7.951 471.498 7.024 A 5.517 5.517 0 0 1 471.708 6.767 Q 472.005 6.47 472.351 5.879 A 8.969 8.969 0 0 0 472.358 5.867 A 3.851 3.851 0 0 0 472.527 5.545 Q 472.683 5.209 472.704 4.949 A 0.988 0.988 0 0 0 472.708 4.867 Q 472.708 3.967 473.058 3.167 Q 473.408 2.367 473.958 1.867 A 2.625 2.625 0 0 1 474.28 1.614 Q 474.656 1.367 475.008 1.367 A 7.578 7.578 0 0 1 476.015 1.431 A 6.429 6.429 0 0 1 476.508 1.517 A 1.567 1.567 0 0 1 477.112 1.799 Q 477.322 1.954 477.522 2.187 A 3.894 3.894 0 0 1 477.808 2.567 Q 478.308 3.367 478.558 4.267 Q 478.775 5.049 478.577 6.437 A 13.372 13.372 0 0 1 478.508 6.867 Q 478.508 7.767 478.408 8.667 L 478.208 10.467 A 13.343 13.343 0 0 1 478.004 11.748 A 11.608 11.608 0 0 1 477.908 12.167 Q 477.008 14.767 476.258 18.067 A 187.132 187.132 0 0 0 474.917 24.467 A 171.676 171.676 0 0 0 474.908 24.517 A 121.819 121.819 0 0 0 474.5 26.767 Q 474.31 27.88 474.165 28.871 A 64.524 64.524 0 0 0 474.008 30.017 A 43.852 43.852 0 0 0 473.91 30.847 Q 473.727 32.535 473.808 33.267 A 26.931 26.931 0 0 0 473.915 33.105 Q 474.16 32.73 474.806 31.733 A 1378.458 1378.458 0 0 0 475.108 31.267 A 97.32 97.32 0 0 1 475.627 30.473 Q 476.358 29.367 476.808 28.767 Q 477.908 27.167 478.358 26.267 A 13.259 13.259 0 0 1 478.907 25.282 A 17.717 17.717 0 0 1 479.508 24.367 A 191.107 191.107 0 0 0 480.528 22.677 Q 481.047 21.807 481.62 20.83 A 339.545 339.545 0 0 0 482.008 20.167 A 470.463 470.463 0 0 0 483.121 18.247 Q 483.612 17.398 484.146 16.465 A 840.49 840.49 0 0 0 485.258 14.517 Q 487.108 11.267 489.308 7.267 Q 490.763 4.817 491.748 3.363 A 26.661 26.661 0 0 1 492.308 2.567 Q 493.197 1.354 493.825 0.73 A 5.244 5.244 0 0 1 494.108 0.467 Q 494.908 0 495.641 0 A 2.252 2.252 0 0 1 496.358 0.117 A 2.831 2.831 0 0 1 497.417 0.769 Q 497.818 1.15 498.158 1.717 Q 498.838 2.849 498.984 4.516 A 10.127 10.127 0 0 1 499.008 4.867 Q 499.008 6.167 498.408 9.667 Q 497.808 13.167 496.808 16.667 Q 496.108 19.367 495.108 22.617 A 50.83 50.83 0 0 0 494.573 24.472 Q 494.121 26.168 493.955 27.382 A 12.426 12.426 0 0 0 493.908 27.767 A 38.036 38.036 0 0 1 493.826 28.692 Q 493.78 29.149 493.726 29.552 A 20.08 20.08 0 0 1 493.658 30.017 A 8.822 8.822 0 0 0 493.604 30.413 Q 493.53 31.077 493.608 31.467 A 3.247 3.247 0 0 0 493.325 32.059 Q 493.096 32.677 492.962 33.597 A 13.863 13.863 0 0 0 492.908 34.017 A 31.581 31.581 0 0 0 492.713 37.077 A 35.44 35.44 0 0 0 492.708 37.667 Q 492.543 39.398 492.344 40.449 A 11.691 11.691 0 0 1 492.258 40.867 A 2.663 2.663 0 0 1 492.089 41.381 Q 491.799 42.019 491.208 42.167 Q 491.11 42.855 489.948 42.818 A 4.004 4.004 0 0 1 489.908 42.817 Q 488.732 42.768 487.94 41.518 A 4.603 4.603 0 0 1 487.908 41.467 A 10.013 10.013 0 0 1 487.666 40.715 Q 487.567 40.357 487.514 40.039 A 4.599 4.599 0 0 1 487.458 39.567 Q 487.408 38.767 487.408 37.467 Q 487.508 36.367 487.658 35.267 A 43.399 43.399 0 0 1 487.726 34.789 Q 487.813 34.199 487.88 33.887 A 3.856 3.856 0 0 1 487.908 33.767 Q 488.208 32.067 488.608 30.117 Q 488.883 28.776 489.229 27.081 A 4881.633 4881.633 0 0 0 489.558 25.467 A 169.113 169.113 0 0 1 490.02 23.28 Q 490.233 22.301 490.48 21.211 A 341.74 341.74 0 0 1 491.008 18.917 A 2831.659 2831.659 0 0 1 491.739 15.797 Q 492.067 14.401 492.435 12.843 A 5679.526 5679.526 0 0 1 493.208 9.567 A 6.041 6.041 0 0 0 492.579 10.315 Q 492.317 10.68 492.07 11.117 A 10.733 10.733 0 0 0 491.908 11.417 Q 491.308 12.567 489.508 15.967 A 817.558 817.558 0 0 0 488.339 18.096 Q 486.996 20.549 486.255 21.955 A 80.447 80.447 0 0 0 485.858 22.717 A 129.489 129.489 0 0 0 485.448 23.521 Q 484.838 24.731 484.608 25.267 Q 483.808 26.567 483.158 27.667 A 36.391 36.391 0 0 1 482.701 28.421 Q 482.513 28.722 482.339 28.984 A 16.679 16.679 0 0 1 482.008 29.467 Q 481.252 30.498 480.354 31.836 A 111.616 111.616 0 0 0 479.508 33.117 A 51.223 51.223 0 0 1 478.54 34.552 Q 478.075 35.217 477.648 35.771 A 22.16 22.16 0 0 1 477.008 36.567 A 16.68 16.68 0 0 1 475.915 37.621 Q 474.73 38.657 473.702 39.063 A 4.287 4.287 0 0 1 473.408 39.167 A 2.542 2.542 0 0 1 472.646 39.286 Q 471.427 39.286 470.208 38.067 Q 468.618 36.383 468.515 33.475 A 11.549 11.549 0 0 1 468.508 33.067 A 19.427 19.427 0 0 1 468.522 32.349 Q 468.546 31.717 468.608 30.967 A 46.424 46.424 0 0 1 468.728 29.734 Q 468.805 29.04 468.908 28.267 Q 469.166 26.892 469.497 25.147 A 1855.552 1855.552 0 0 1 469.608 24.567 Q 470.008 22.467 470.308 20.567 Q 470.408 19.567 470.658 18.567 Q 470.908 17.567 471.008 16.567 A 1851.454 1851.454 0 0 1 469.114 20.054 A 1626.347 1626.347 0 0 1 468.508 21.167 A 60.634 60.634 0 0 0 467.158 23.8 A 77.557 77.557 0 0 0 466.108 26.067 Q 464.508 29.067 462.858 32.367 Q 461.53 35.022 460.364 37.095 A 71.381 71.381 0 0 1 459.808 38.067 Q 459.602 38.41 459.348 38.872 A 42.204 42.204 0 0 0 459.108 39.317 Q 458.708 40.067 458.708 39.967 L 458.008 41.367 A 2.311 2.311 0 0 1 457.835 41.653 Q 457.636 41.939 457.308 42.267 Z M 148.408 59.367 L 148.608 57.267 L 144.708 60.367 A 31.034 31.034 0 0 1 141.987 62.524 Q 140.028 63.895 138.158 64.667 A 20.965 20.965 0 0 1 135.991 65.433 Q 134.146 65.967 132.608 65.967 Q 131.508 65.767 130.408 65.167 Q 129.308 64.567 128.458 63.667 A 8.37 8.37 0 0 1 127.474 62.412 A 7.23 7.23 0 0 1 127.108 61.767 A 4.789 4.789 0 0 1 126.818 60.807 Q 126.629 59.845 126.708 58.568 A 14.385 14.385 0 0 1 126.758 57.967 Q 127.008 55.567 127.958 52.717 Q 128.908 49.867 130.358 47.117 A 24.521 24.521 0 0 1 132.675 43.499 A 21.454 21.454 0 0 1 133.708 42.267 Q 137.008 37.267 140.808 36.167 A 9.035 9.035 0 0 1 143.33 35.8 Q 145.135 35.8 146.917 36.558 A 11.622 11.622 0 0 1 148.308 37.267 A 37.214 37.214 0 0 0 149.144 37.609 Q 150.973 38.331 151.53 38.27 A 0.634 0.634 0 0 0 151.558 38.267 A 0.593 0.593 0 0 0 151.897 38.06 Q 152.255 37.67 152.56 36.558 A 13.62 13.62 0 0 0 152.708 35.967 Q 153.108 34.367 153.508 32.717 A 36.965 36.965 0 0 1 153.807 31.573 Q 154.189 30.192 154.808 28.267 A 263.332 263.332 0 0 1 156.017 24.673 Q 157.771 19.592 159.158 16.367 A 335.879 335.879 0 0 1 160.496 13.296 Q 161.033 12.082 161.536 10.974 A 193.058 193.058 0 0 1 162.508 8.867 Q 163.526 6.738 164.244 6.108 A 1.681 1.681 0 0 1 164.358 6.017 A 2.59 2.59 0 0 1 164.915 5.701 Q 165.402 5.503 165.908 5.567 A 2.876 2.876 0 0 1 167.694 6.19 A 3.759 3.759 0 0 1 167.908 6.367 A 4.55 4.55 0 0 1 168.794 7.457 Q 169.085 7.946 169.301 8.548 A 7.555 7.555 0 0 1 169.308 8.567 Q 169.664 9.367 169.664 9.969 A 1.923 1.923 0 0 1 169.658 10.117 Q 169.616 10.665 169.182 11.533 A 10.355 10.355 0 0 1 169.008 11.867 Q 167.708 14.267 165.958 18.217 Q 164.208 22.167 162.458 26.867 Q 160.708 31.567 159.208 36.167 A 301.926 301.926 0 0 0 158.153 39.462 Q 157.743 40.771 157.382 41.972 A 172.346 172.346 0 0 0 156.708 44.267 A 29.105 29.105 0 0 0 156.296 46.003 Q 156.121 46.846 155.962 47.812 A 64.895 64.895 0 0 0 155.658 49.867 Q 155.208 53.267 154.908 56.817 A 119.607 119.607 0 0 0 154.693 59.77 Q 154.586 61.57 154.558 63.117 Q 154.508 65.867 154.708 66.667 A 21.372 21.372 0 0 1 154.95 67.536 Q 155.296 68.897 155.258 69.667 A 3.253 3.253 0 0 1 155.202 70.139 Q 155.079 70.757 154.708 71.017 Q 154.208 71.367 153.108 71.467 Q 152.211 71.674 151.528 71.428 A 2.106 2.106 0 0 1 150.958 71.117 A 3.433 3.433 0 0 1 150.019 69.995 A 4.63 4.63 0 0 1 149.708 69.267 A 23.323 23.323 0 0 1 148.852 66.054 A 28.431 28.431 0 0 1 148.558 64.217 Q 148.208 61.467 148.408 59.367 Z M 232.706 64.847 A 7.77 7.77 0 0 0 234.108 64.967 A 4.479 4.479 0 0 0 234.701 64.777 Q 235.749 64.353 235.908 63.517 A 1.616 1.616 0 0 0 235.937 63.214 Q 235.937 62.55 235.399 61.829 A 5.162 5.162 0 0 0 234.908 61.267 Q 234.552 60.91 234.213 60.413 A 9.226 9.226 0 0 1 233.758 59.667 A 7.605 7.605 0 0 1 233.618 59.4 Q 233.42 59.004 233.296 58.632 A 4.077 4.077 0 0 1 233.108 57.817 A 2.841 2.841 0 0 1 233.104 57.777 Q 233.042 57.177 233.293 57.021 A 0.4 0.4 0 0 1 233.508 56.967 L 233.508 56.917 L 233.508 56.467 A 1.009 1.009 0 0 1 233.377 56.459 Q 233.299 56.449 233.241 56.425 A 0.274 0.274 0 0 1 233.058 56.217 L 233.008 55.967 A 0.618 0.618 0 0 0 233.165 55.826 Q 233.45 55.48 233.614 54.536 A 10.945 10.945 0 0 0 233.708 53.867 Q 233.908 52.067 233.858 49.867 Q 233.808 47.667 233.408 46.367 Q 233.308 45.967 233.258 45.567 Q 233.208 45.167 233.208 44.767 A 2.064 2.064 0 0 0 233.112 44.481 Q 232.913 43.997 232.429 43.403 A 9.887 9.887 0 0 0 231.908 42.817 Q 230.808 41.667 229.558 40.817 Q 228.708 40.239 228.067 40.054 A 2.027 2.027 0 0 0 227.508 39.967 A 0.929 0.929 0 0 0 227.501 39.967 Q 227.2 39.969 226.621 40.166 A 10.154 10.154 0 0 0 226.208 40.317 A 22.024 22.024 0 0 0 225.874 40.45 A 19.622 19.622 0 0 0 224.508 41.067 A 3.949 3.949 0 0 0 223.917 41.241 Q 222.975 41.591 221.458 42.517 A 65.257 65.257 0 0 0 220.698 42.987 A 58.031 58.031 0 0 0 217.608 45.067 A 72.014 72.014 0 0 0 216.992 45.516 Q 216.058 46.206 215.589 46.61 A 5.23 5.23 0 0 0 215.308 46.867 Q 214.508 47.367 213.158 48.317 Q 212.399 48.851 211.734 49.306 A 92.996 92.996 0 0 1 210.758 49.967 L 209.708 50.667 A 1.643 1.643 0 0 1 209.714 50.527 Q 209.742 50.207 209.889 49.767 A 7.146 7.146 0 0 1 210.058 49.317 Q 210.408 48.467 211.108 46.867 Q 213.194 43.486 213.96 41.218 A 8.807 8.807 0 0 0 214.358 39.617 A 6.07 6.07 0 0 0 214.415 38.79 Q 214.415 37.56 213.904 36.365 A 8.222 8.222 0 0 0 212.908 34.667 Q 212.008 33.467 210.908 33.117 A 2.436 2.436 0 0 0 210.679 33.055 Q 210.035 32.918 209.501 33.197 A 2.03 2.03 0 0 0 209.008 33.567 A 0.831 0.831 0 0 0 208.542 33.707 A 1.123 1.123 0 0 0 208.308 33.917 A 1.08 1.08 0 0 0 208.192 34.079 Q 208.078 34.276 208.083 34.488 A 0.816 0.816 0 0 0 208.108 34.667 Q 207.983 36.167 207.721 37.354 A 11.969 11.969 0 0 1 207.358 38.667 Q 206.808 40.267 205.408 42.667 A 145.713 145.713 0 0 0 205.314 42.881 Q 204.984 43.639 204.622 44.494 A 249.757 249.757 0 0 0 203.858 46.317 Q 203.267 47.742 202.99 48.757 A 8.277 8.277 0 0 0 202.808 49.567 A 14.59 14.59 0 0 0 202.534 49.994 Q 201.945 50.947 201.658 51.767 A 3.823 3.823 0 0 1 201.536 52.074 Q 201.37 52.442 201.175 52.615 A 0.547 0.547 0 0 1 200.808 52.767 A 5.503 5.503 0 0 0 200.726 52.987 Q 200.579 53.406 200.343 54.219 A 76.595 76.595 0 0 0 200.158 54.867 Q 199.708 56.467 199.408 58.067 Q 199.174 59.317 199.122 59.895 A 3.167 3.167 0 0 0 199.108 60.167 A 2.032 2.032 0 0 0 199.226 60.368 Q 199.466 60.735 199.998 61.306 A 16.129 16.129 0 0 0 200.008 61.317 Q 200.708 62.067 201.408 62.867 Q 202.408 63.667 202.958 64.017 Q 203.508 64.367 204.308 63.967 A 0.941 0.941 0 0 0 204.591 63.924 Q 205.03 63.786 205.344 63.204 A 3.591 3.591 0 0 0 205.558 62.717 A 2.907 2.907 0 0 1 205.575 62.67 Q 205.932 61.73 207.245 60.162 A 32.628 32.628 0 0 1 208.208 59.067 Q 211.008 56.667 214.158 54.467 Q 217.308 52.267 220.208 50.417 A 546.463 546.463 0 0 1 220.807 50.035 Q 223.298 48.451 224.908 47.467 A 9.408 9.408 0 0 1 225.281 47.268 Q 226.364 46.721 227.061 46.766 A 1.36 1.36 0 0 1 227.358 46.817 A 0.929 0.929 0 0 1 227.869 47.218 Q 228.125 47.603 228.236 48.326 A 7.316 7.316 0 0 1 228.308 49.067 A 53.643 53.643 0 0 0 228.315 49.946 A 44.038 44.038 0 0 0 228.358 51.317 Q 228.408 52.367 228.008 52.767 A 0.963 0.963 0 0 0 227.971 52.834 Q 227.769 53.241 227.722 54.189 A 12.706 12.706 0 0 0 227.708 54.817 A 20.677 20.677 0 0 0 227.743 56.007 A 25.189 25.189 0 0 0 227.958 58.117 Q 228.208 59.867 228.608 61.267 A 10.252 10.252 0 0 0 228.963 61.983 Q 229.754 63.428 230.808 64.117 A 4.505 4.505 0 0 0 231.204 64.347 Q 231.875 64.695 232.706 64.847 Z M 55.008 42.567 L 55.008 41.967 A 0.89 0.89 0 0 1 55.064 41.683 Q 55.211 41.255 55.746 40.542 A 13.181 13.181 0 0 1 55.958 40.267 A 28.876 28.876 0 0 1 56.875 39.169 Q 57.521 38.432 58.308 37.617 Q 59.708 36.167 61.208 34.817 A 29.596 29.596 0 0 1 62.095 34.047 Q 62.922 33.36 63.56 32.958 A 7.599 7.599 0 0 1 63.708 32.867 A 10.992 10.992 0 0 1 66.246 31.595 A 9.436 9.436 0 0 1 68.058 31.167 A 6.29 6.29 0 0 1 68.773 31.111 Q 68.826 31.11 68.879 31.11 A 4.661 4.661 0 0 1 71.908 32.167 L 72.908 33.167 A 33.23 33.23 0 0 0 73.568 33.808 Q 73.91 34.131 74.296 34.481 A 56.405 56.405 0 0 0 74.558 34.717 A 898.559 898.559 0 0 1 76.492 36.453 A 3717.915 3717.915 0 0 0 76.508 36.467 L 80.208 39.767 L 78.408 44.767 A 19.486 19.486 0 0 0 77.816 47.015 Q 77.298 49.642 77.758 51.767 Q 78.408 54.767 79.708 56.967 A 3.594 3.594 0 0 0 80.273 57.827 Q 80.584 58.186 81.015 58.533 A 8.708 8.708 0 0 0 81.758 59.067 Q 83.107 59.937 84.342 60.201 A 5.39 5.39 0 0 0 84.708 60.267 A 3.219 3.219 0 0 1 86.12 60.806 A 3.796 3.796 0 0 1 86.208 60.867 A 1.596 1.596 0 0 1 86.829 61.795 Q 86.908 62.097 86.908 62.467 Q 86.908 63.21 86.687 63.733 A 2.02 2.02 0 0 1 86.508 64.067 Q 86.177 64.564 85.434 64.786 A 3.587 3.587 0 0 1 85.108 64.867 Q 82.066 65.235 79.406 63.565 A 10.551 10.551 0 0 1 78.958 63.267 A 12.579 12.579 0 0 1 76.758 61.26 Q 75.152 59.434 73.708 56.667 Q 73.308 56.067 72.658 54.417 A 56.51 56.51 0 0 1 72.434 53.838 Q 72.096 52.953 71.968 52.506 A 3.116 3.116 0 0 1 71.908 52.267 A 90.418 90.418 0 0 1 71.682 52.548 Q 71.351 52.958 70.78 53.66 A 885.665 885.665 0 0 1 70.408 54.117 Q 69.318 55.455 68.719 56.056 A 8.395 8.395 0 0 1 68.708 56.067 Q 61.608 63.267 56.458 65.717 A 15.733 15.733 0 0 1 54.531 66.491 Q 50.65 67.741 47.908 65.967 A 4.039 4.039 0 0 0 47.489 65.294 A 3.064 3.064 0 0 0 46.908 64.717 A 2.75 2.75 0 0 1 46.66 64.508 Q 46.408 64.268 46.336 64.043 A 0.58 0.58 0 0 1 46.308 63.867 A 7.195 7.195 0 0 0 46.288 63.347 A 8.664 8.664 0 0 0 46.258 63.017 Q 46.208 62.567 45.808 62.167 Q 45.354 61.622 45.807 59.799 A 13.851 13.851 0 0 1 45.908 59.417 A 25.78 25.78 0 0 1 46.415 57.82 Q 46.702 57.002 47.075 56.076 A 60.924 60.924 0 0 1 47.908 54.117 Q 49.308 50.967 51.208 47.467 Q 51.888 46.787 52.567 45.747 A 16.69 16.69 0 0 0 52.808 45.367 A 28.114 28.114 0 0 1 53.161 44.807 Q 53.702 43.973 54.008 43.667 A 1.069 1.069 0 0 1 54.18 43.089 A 1.451 1.451 0 0 1 54.308 42.917 A 1.123 1.123 0 0 1 54.542 42.707 A 0.831 0.831 0 0 1 55.008 42.567 Z M 183.808 66.067 Q 181.708 67.867 178.958 68.167 A 10.427 10.427 0 0 1 177.826 68.229 A 10.332 10.332 0 0 1 173.608 67.317 Q 171.008 66.167 169.308 63.767 Q 167.608 61.567 167.108 58.717 A 17.336 17.336 0 0 1 166.909 57.114 Q 166.712 54.669 167.008 51.267 A 17.712 17.712 0 0 1 168.22 46.126 A 22.496 22.496 0 0 1 169.508 43.417 Q 171.708 39.467 174.858 36.367 A 24.617 24.617 0 0 1 177.36 34.198 Q 178.743 33.163 180.116 32.499 A 13.317 13.317 0 0 1 181.108 32.067 A 8.375 8.375 0 0 1 181.879 31.606 Q 182.824 31.114 183.557 31.114 A 2.123 2.123 0 0 1 183.658 31.117 Q 184.689 31.166 186.829 31.359 A 213.46 213.46 0 0 1 186.908 31.367 A 19.603 19.603 0 0 1 188.111 31.559 Q 189.294 31.789 190.065 32.127 A 4.762 4.762 0 0 1 190.358 32.267 Q 191.508 32.867 192.208 33.867 Q 193.367 35.026 193.929 36.155 A 5.538 5.538 0 0 1 194.208 36.817 A 9.099 9.099 0 0 1 194.659 38.787 A 8.015 8.015 0 0 1 194.708 39.667 A 6.935 6.935 0 0 1 194.223 41.193 Q 193.585 42.65 192.223 44.427 A 28.413 28.413 0 0 1 191.758 45.017 A 18.328 18.328 0 0 1 187.177 49.023 A 22.557 22.557 0 0 1 185.108 50.167 A 13.155 13.155 0 0 1 181.981 50.746 Q 181.166 50.8 180.308 50.767 A 9.866 9.866 0 0 1 178.362 50.508 Q 177.024 50.184 176.008 49.467 A 5.898 5.898 0 0 0 175.542 49.292 Q 174.661 49.006 174.116 49.198 A 1.111 1.111 0 0 0 173.508 49.717 A 3.529 3.529 0 0 0 173.25 50.317 Q 172.9 51.344 172.587 53.454 A 57.347 57.347 0 0 0 172.408 54.767 A 21.932 21.932 0 0 0 172.323 55.795 Q 172.198 57.951 172.601 59.334 A 4.527 4.527 0 0 0 173.008 60.317 Q 174.008 62.067 175.708 62.367 Q 177.356 62.696 178.427 62.856 A 23.622 23.622 0 0 0 178.858 62.917 A 2.39 2.39 0 0 0 179.167 62.936 Q 180.208 62.936 181.649 62.101 A 10.777 10.777 0 0 0 181.708 62.067 A 66.796 66.796 0 0 1 182.266 61.722 Q 183.364 61.05 183.697 60.921 A 1.044 1.044 0 0 1 183.708 60.917 A 2.112 2.112 0 0 0 184.05 60.754 A 1.574 1.574 0 0 0 184.358 60.517 L 185.608 59.267 A 46.298 46.298 0 0 1 185.939 58.939 Q 186.408 58.479 186.708 58.217 A 1.426 1.426 0 0 1 187.154 57.946 A 1.301 1.301 0 0 1 187.608 57.867 A 1.084 1.084 0 0 1 188.275 58.099 A 1.619 1.619 0 0 1 188.508 58.317 Q 188.832 58.681 189.156 58.881 A 1.927 1.927 0 0 0 189.308 58.967 A 1.193 1.193 0 0 1 189.559 58.991 Q 190.185 59.126 189.817 60.03 A 3.41 3.41 0 0 1 189.758 60.167 A 6.107 6.107 0 0 1 189.312 60.961 Q 188.793 61.753 187.908 62.702 A 22.424 22.424 0 0 1 187.608 63.017 Q 186.008 64.667 183.808 66.067 Z M 414.908 66.067 Q 412.808 67.867 410.058 68.167 A 10.427 10.427 0 0 1 408.926 68.229 A 10.332 10.332 0 0 1 404.708 67.317 Q 402.108 66.167 400.408 63.767 Q 398.708 61.567 398.208 58.717 A 17.336 17.336 0 0 1 398.009 57.114 Q 397.812 54.669 398.108 51.267 A 17.712 17.712 0 0 1 399.32 46.126 A 22.496 22.496 0 0 1 400.608 43.417 Q 402.808 39.467 405.958 36.367 A 24.617 24.617 0 0 1 408.46 34.198 Q 409.843 33.163 411.216 32.499 A 13.317 13.317 0 0 1 412.208 32.067 A 8.375 8.375 0 0 1 412.979 31.606 Q 413.924 31.114 414.657 31.114 A 2.123 2.123 0 0 1 414.758 31.117 Q 415.789 31.166 417.929 31.359 A 213.46 213.46 0 0 1 418.008 31.367 A 19.603 19.603 0 0 1 419.211 31.559 Q 420.394 31.789 421.165 32.127 A 4.762 4.762 0 0 1 421.458 32.267 Q 422.608 32.867 423.308 33.867 Q 424.467 35.026 425.029 36.155 A 5.538 5.538 0 0 1 425.308 36.817 A 9.099 9.099 0 0 1 425.759 38.787 A 8.015 8.015 0 0 1 425.808 39.667 A 6.935 6.935 0 0 1 425.323 41.193 Q 424.685 42.65 423.323 44.427 A 28.413 28.413 0 0 1 422.858 45.017 A 18.328 18.328 0 0 1 418.277 49.023 A 22.557 22.557 0 0 1 416.208 50.167 A 13.155 13.155 0 0 1 413.081 50.746 Q 412.266 50.8 411.408 50.767 A 9.866 9.866 0 0 1 409.462 50.508 Q 408.124 50.184 407.108 49.467 A 5.898 5.898 0 0 0 406.642 49.292 Q 405.761 49.006 405.216 49.198 A 1.111 1.111 0 0 0 404.608 49.717 A 3.529 3.529 0 0 0 404.35 50.317 Q 404 51.344 403.687 53.454 A 57.347 57.347 0 0 0 403.508 54.767 A 21.932 21.932 0 0 0 403.423 55.795 Q 403.298 57.951 403.701 59.334 A 4.527 4.527 0 0 0 404.108 60.317 Q 405.108 62.067 406.808 62.367 Q 408.456 62.696 409.527 62.856 A 23.622 23.622 0 0 0 409.958 62.917 A 2.39 2.39 0 0 0 410.267 62.936 Q 411.308 62.936 412.749 62.101 A 10.777 10.777 0 0 0 412.808 62.067 A 66.796 66.796 0 0 1 413.366 61.722 Q 414.464 61.05 414.797 60.921 A 1.044 1.044 0 0 1 414.808 60.917 A 2.112 2.112 0 0 0 415.15 60.754 A 1.574 1.574 0 0 0 415.458 60.517 L 416.708 59.267 A 46.298 46.298 0 0 1 417.039 58.939 Q 417.508 58.479 417.808 58.217 A 1.426 1.426 0 0 1 418.254 57.946 A 1.301 1.301 0 0 1 418.708 57.867 A 1.084 1.084 0 0 1 419.375 58.099 A 1.619 1.619 0 0 1 419.608 58.317 Q 419.932 58.681 420.256 58.881 A 1.927 1.927 0 0 0 420.408 58.967 A 1.193 1.193 0 0 1 420.659 58.991 Q 421.285 59.126 420.917 60.03 A 3.41 3.41 0 0 1 420.858 60.167 A 6.107 6.107 0 0 1 420.412 60.961 Q 419.893 61.753 419.008 62.702 A 22.424 22.424 0 0 1 418.708 63.017 Q 417.108 64.667 414.908 66.067 Z M 92.808 66.067 Q 91.908 65.367 91.558 64.667 A 1.469 1.469 0 0 1 91.447 64.347 Q 91.266 63.58 91.508 61.967 A 50.962 50.962 0 0 1 91.809 59.641 Q 92.027 58.226 92.308 57.017 A 248.787 248.787 0 0 1 92.784 55.011 Q 93.032 53.984 93.315 52.841 A 435.485 435.485 0 0 1 93.508 52.067 Q 93.701 50.908 94.594 48.163 A 98.428 98.428 0 0 1 94.658 47.967 Q 95.608 45.067 97.008 41.667 Q 98.408 38.267 99.808 35.217 Q 100.962 32.703 101.844 31.242 A 15.264 15.264 0 0 1 102.208 30.667 A 2.572 2.572 0 0 1 103.576 30.163 Q 103.704 30.152 103.837 30.152 A 3.71 3.71 0 0 1 104.158 30.167 Q 105.308 30.267 106.108 31.067 A 1.742 1.742 0 0 1 106.724 32.152 Q 106.87 32.98 106.458 34.217 Q 105.708 36.467 103.408 41.267 L 101.608 45.317 Q 101.047 46.579 101.098 46.88 A 0.182 0.182 0 0 0 101.108 46.917 Q 101.196 47.136 101.822 46.778 A 5.499 5.499 0 0 0 102.008 46.667 A 5.904 5.904 0 0 1 102.481 45.945 Q 103.108 45.114 104.208 44.117 A 58.935 58.935 0 0 1 107.552 41.31 A 63.795 63.795 0 0 1 107.608 41.267 Q 109.408 39.867 111.008 38.767 A 64.917 64.917 0 0 1 111.66 38.324 Q 112.739 37.601 113.208 37.367 A 7.826 7.826 0 0 1 114.246 36.826 A 9.98 9.98 0 0 1 115.058 36.517 A 30.627 30.627 0 0 0 115.542 36.351 Q 116.193 36.122 116.495 35.973 A 2.659 2.659 0 0 0 116.508 35.967 A 8.697 8.697 0 0 1 119.138 35.171 Q 119.658 35.102 120.184 35.102 A 8.248 8.248 0 0 1 121.208 35.167 Q 123.608 35.467 124.208 36.967 A 2.118 2.118 0 0 0 124.338 37.49 A 1.508 1.508 0 0 0 124.858 38.167 L 125.408 38.567 A 0.799 0.799 0 0 1 125.566 38.581 Q 125.819 38.632 125.858 38.867 L 125.908 39.167 Q 125.908 39.743 125.195 39.947 A 2.543 2.543 0 0 1 124.858 40.017 Q 124.144 40.119 123.177 40.197 A 51.552 51.552 0 0 1 122.208 40.267 A 9.038 9.038 0 0 0 120.992 40.44 A 6.761 6.761 0 0 0 119.908 40.767 Q 118.908 41.167 117.508 41.767 A 395.991 395.991 0 0 0 112.005 45.01 A 349.008 349.008 0 0 0 110.258 46.067 A 27.911 27.911 0 0 0 106.249 49.054 A 35.718 35.718 0 0 0 103.608 51.667 Q 102.908 52.467 102.208 53.567 Q 101.508 54.667 100.708 55.967 A 1.859 1.859 0 0 0 100.45 56.304 Q 100.079 56.905 99.708 58.167 A 55.384 55.384 0 0 0 99.091 60.433 A 46.988 46.988 0 0 0 98.858 61.417 A 60.091 60.091 0 0 0 98.739 61.954 Q 98.508 63.023 98.508 63.267 L 98.208 64.217 A 5.542 5.542 0 0 1 97.624 65.471 A 6.887 6.887 0 0 1 97.208 66.067 A 9.664 9.664 0 0 1 96.706 66.685 Q 95.889 67.606 95.287 67.663 A 0.833 0.833 0 0 1 95.208 67.667 A 1.255 1.255 0 0 1 94.734 67.557 Q 94.062 67.278 93.033 66.288 A 16.682 16.682 0 0 1 92.808 66.067 Z M 294.308 66.067 Q 293.408 65.367 293.058 64.667 A 1.469 1.469 0 0 1 292.947 64.347 Q 292.766 63.58 293.008 61.967 A 50.962 50.962 0 0 1 293.309 59.641 Q 293.527 58.226 293.808 57.017 A 248.787 248.787 0 0 1 294.284 55.011 Q 294.532 53.984 294.815 52.841 A 435.485 435.485 0 0 1 295.008 52.067 Q 295.201 50.908 296.094 48.163 A 98.428 98.428 0 0 1 296.158 47.967 Q 297.108 45.067 298.508 41.667 Q 299.908 38.267 301.308 35.217 Q 302.462 32.703 303.344 31.242 A 15.264 15.264 0 0 1 303.708 30.667 A 2.572 2.572 0 0 1 305.076 30.163 Q 305.204 30.152 305.337 30.152 A 3.71 3.71 0 0 1 305.658 30.167 Q 306.808 30.267 307.608 31.067 A 1.742 1.742 0 0 1 308.224 32.152 Q 308.37 32.98 307.958 34.217 Q 307.208 36.467 304.908 41.267 L 303.108 45.317 Q 302.547 46.579 302.598 46.88 A 0.182 0.182 0 0 0 302.608 46.917 Q 302.696 47.136 303.322 46.778 A 5.499 5.499 0 0 0 303.508 46.667 A 5.904 5.904 0 0 1 303.981 45.945 Q 304.608 45.114 305.708 44.117 A 58.935 58.935 0 0 1 309.052 41.31 A 63.795 63.795 0 0 1 309.108 41.267 Q 310.908 39.867 312.508 38.767 A 64.917 64.917 0 0 1 313.16 38.324 Q 314.239 37.601 314.708 37.367 A 7.826 7.826 0 0 1 315.746 36.826 A 9.98 9.98 0 0 1 316.558 36.517 A 30.627 30.627 0 0 0 317.042 36.351 Q 317.693 36.122 317.995 35.973 A 2.659 2.659 0 0 0 318.008 35.967 A 8.697 8.697 0 0 1 320.638 35.171 Q 321.158 35.102 321.684 35.102 A 8.248 8.248 0 0 1 322.708 35.167 Q 325.108 35.467 325.708 36.967 A 2.118 2.118 0 0 0 325.838 37.49 A 1.508 1.508 0 0 0 326.358 38.167 L 326.908 38.567 A 0.799 0.799 0 0 1 327.066 38.581 Q 327.319 38.632 327.358 38.867 L 327.408 39.167 Q 327.408 39.743 326.695 39.947 A 2.543 2.543 0 0 1 326.358 40.017 Q 325.644 40.119 324.677 40.197 A 51.552 51.552 0 0 1 323.708 40.267 A 9.038 9.038 0 0 0 322.492 40.44 A 6.761 6.761 0 0 0 321.408 40.767 Q 320.408 41.167 319.008 41.767 A 395.991 395.991 0 0 0 313.505 45.01 A 349.008 349.008 0 0 0 311.758 46.067 A 27.911 27.911 0 0 0 307.749 49.054 A 35.718 35.718 0 0 0 305.108 51.667 Q 304.408 52.467 303.708 53.567 Q 303.008 54.667 302.208 55.967 A 1.859 1.859 0 0 0 301.95 56.304 Q 301.579 56.905 301.208 58.167 A 55.384 55.384 0 0 0 300.591 60.433 A 46.988 46.988 0 0 0 300.358 61.417 A 60.091 60.091 0 0 0 300.239 61.954 Q 300.008 63.023 300.008 63.267 L 299.708 64.217 A 5.542 5.542 0 0 1 299.124 65.471 A 6.887 6.887 0 0 1 298.708 66.067 A 9.664 9.664 0 0 1 298.206 66.685 Q 297.389 67.606 296.787 67.663 A 0.833 0.833 0 0 1 296.708 67.667 A 1.255 1.255 0 0 1 296.234 67.557 Q 295.562 67.278 294.533 66.288 A 16.682 16.682 0 0 1 294.308 66.067 Z M 372.173 63.072 A 2.021 2.021 0 0 0 372.508 63.467 Q 373.708 64.667 375.108 64.167 A 4.813 4.813 0 0 0 375.896 63.789 Q 377.127 63.074 378.908 61.367 A 16.297 16.297 0 0 1 379.987 59.994 A 12.424 12.424 0 0 1 381.458 58.567 A 87.077 87.077 0 0 0 381.921 58.187 Q 382.881 57.393 383.208 57.067 A 6.689 6.689 0 0 0 383.392 56.875 Q 384.028 56.185 385.408 54.417 Q 387.008 52.367 388.708 49.917 A 67.871 67.871 0 0 0 388.861 49.695 Q 390.445 47.394 391.208 45.867 A 1.978 1.978 0 0 0 391.378 45.67 Q 391.703 45.246 392.058 44.417 A 10.178 10.178 0 0 1 392.119 44.277 Q 392.339 43.784 392.635 43.259 A 17.074 17.074 0 0 1 393.308 42.167 A 19.172 19.172 0 0 0 394.065 41.029 Q 395.265 39.066 395.108 37.967 Q 394.925 36.683 392.893 36.913 A 7.363 7.363 0 0 0 392.508 36.967 A 1.836 1.836 0 0 0 392.357 37.011 Q 391.848 37.186 391.281 37.693 A 6.988 6.988 0 0 0 390.758 38.217 A 29.271 29.271 0 0 0 390.639 38.349 A 31.868 31.868 0 0 0 388.908 40.467 Q 388.008 41.667 387.308 42.667 Q 385.708 44.667 384.458 46.467 A 82.484 82.484 0 0 1 384.185 46.857 Q 382.987 48.562 381.108 51.067 A 49.393 49.393 0 0 1 380.807 51.464 A 44.867 44.867 0 0 1 378.658 54.067 A 180.492 180.492 0 0 1 378.229 54.546 Q 377.574 55.274 377.224 55.644 A 11.752 11.752 0 0 1 377.008 55.867 A 2.612 2.612 0 0 1 376.948 55.925 Q 376.301 56.532 375.821 56.1 A 1.202 1.202 0 0 1 375.658 55.917 Q 375.108 55.167 374.708 54.367 A 0.979 0.979 0 0 0 374.702 54.268 Q 374.648 53.746 374.108 51.767 A 27.382 27.382 0 0 1 373.838 50.686 Q 373.414 48.84 373.108 46.467 A 94.349 94.349 0 0 0 372.561 43.209 Q 371.98 40.1 371.308 37.917 A 20.682 20.682 0 0 0 371.168 37.479 Q 370.51 35.497 369.767 34.717 A 1.65 1.65 0 0 0 369.108 34.267 Q 368.794 34.188 368.265 34.264 A 5.591 5.591 0 0 0 367.958 34.317 A 5.699 5.699 0 0 0 367.799 34.351 Q 367.493 34.421 367.232 34.518 A 3.154 3.154 0 0 0 366.708 34.767 A 3.679 3.679 0 0 0 366.309 35.034 A 2.539 2.539 0 0 0 365.308 36.667 A 3.957 3.957 0 0 0 365.278 36.886 Q 365.153 38.027 365.608 39.667 A 118.219 118.219 0 0 1 365.638 39.758 Q 365.93 40.636 366.358 41.967 Q 366.808 43.367 367.208 45.367 Q 367.808 48.767 368.758 52.817 A 97.539 97.539 0 0 0 369.027 53.935 Q 369.856 57.289 370.758 59.867 A 35.672 35.672 0 0 0 371.112 60.837 Q 371.705 62.386 372.173 63.072 Z M 333.258 67.567 A 2.519 2.519 0 0 0 333.756 67.821 Q 334.397 68.067 335.308 68.067 Q 336.476 67.965 337.489 67.747 A 12.355 12.355 0 0 0 339.308 67.217 Q 340.371 66.81 341.589 66.111 A 26.706 26.706 0 0 0 343.108 65.167 A 43.421 43.421 0 0 0 345.808 63.454 A 31.822 31.822 0 0 0 348.108 61.717 Q 350.208 59.967 352.708 56.367 A 56.532 56.532 0 0 0 353.451 55.282 Q 355.629 52.02 356.672 49.404 A 14.55 14.55 0 0 0 357.458 46.817 A 31.019 31.019 0 0 0 357.843 44.334 Q 358.108 41.962 357.908 39.967 A 13.646 13.646 0 0 0 357.672 38.513 Q 357.304 36.862 356.558 35.867 A 5.544 5.544 0 0 0 355.881 35.122 Q 355.351 34.633 354.642 34.201 A 11.856 11.856 0 0 0 353.208 33.467 Q 352.124 32.31 351.379 31.99 A 1.332 1.332 0 0 0 350.858 31.867 A 3.289 3.289 0 0 0 350.759 31.868 Q 349.886 31.894 347.808 32.367 Q 345.608 32.867 343.708 33.867 Q 342.461 34.523 340.956 35.653 A 38.631 38.631 0 0 0 339.308 36.967 Q 338.108 37.967 336.658 39.617 A 50.49 50.49 0 0 0 336.211 40.132 A 45.164 45.164 0 0 0 334.008 42.917 A 75.915 75.915 0 0 0 333.782 43.23 Q 332.75 44.663 332.208 45.567 Q 330.708 47.967 329.708 50.667 Q 328.802 53.114 328.881 54 A 1.09 1.09 0 0 0 328.908 54.167 Q 329.108 55.267 328.508 55.267 A 3.325 3.325 0 0 1 328.469 55.342 Q 328.289 55.681 328.108 55.817 A 0.136 0.136 0 0 0 328.051 55.931 Q 328.051 56.11 328.408 56.467 L 328.458 57.217 A 3.236 3.236 0 0 1 328.465 57.432 Q 328.465 58.081 328.208 58.767 Q 327.908 60.467 328.708 62.317 Q 329.208 63.473 330.138 64.688 A 18.341 18.341 0 0 0 331.408 66.167 A 38.06 38.06 0 0 0 332.092 66.714 Q 332.754 67.231 333.258 67.567 Z M 449.308 4.767 L 454.308 4.867 Q 454.231 5.403 454.038 6.261 A 42.417 42.417 0 0 1 453.908 6.817 Q 453.608 8.067 452.908 9.567 A 0.596 0.596 0 0 1 452.896 9.67 Q 452.846 9.933 452.598 10.65 A 31.57 31.57 0 0 1 452.558 10.767 Q 452.317 11.454 451.959 12.331 A 55.437 55.437 0 0 1 451.608 13.167 Q 451.789 13.438 451.357 14.688 A 15.424 15.424 0 0 1 451.258 14.967 Q 450.708 16.467 450.108 18.267 Q 449.908 18.967 449.608 19.667 A 9.673 9.673 0 0 0 449.187 20.87 A 10.942 10.942 0 0 0 449.108 21.167 A 10.24 10.24 0 0 1 448.863 21.991 Q 448.711 22.434 448.508 22.917 Q 448.179 23.698 447.512 25.595 A 189.5 189.5 0 0 0 447.208 26.467 Q 446.808 27.567 446.458 28.667 Q 446.108 29.767 445.708 30.867 A 14.149 14.149 0 0 0 445.203 31.844 Q 444.642 33.032 444.058 34.717 Q 443.208 37.167 442.608 40.267 A 13.282 13.282 0 0 1 442.424 40.785 Q 442.033 41.814 441.708 42.017 A 1.059 1.059 0 0 1 441.419 42.139 Q 441.058 42.235 440.508 42.167 Q 440.013 42.025 439.468 41.584 A 5.955 5.955 0 0 1 439.008 41.167 Q 438.297 40.456 438.297 39.823 A 1.107 1.107 0 0 1 438.308 39.667 A 6.242 6.242 0 0 1 438.348 39.002 Q 438.426 38.274 438.661 37.268 A 26.126 26.126 0 0 1 438.758 36.867 Q 439.208 35.067 439.758 33.217 Q 440.308 31.367 440.708 30.367 Q 440.908 29.567 441.158 28.717 Q 441.362 28.024 441.399 27.829 A 0.386 0.386 0 0 0 441.408 27.767 Q 441.608 27.367 442.058 26.417 A 6.481 6.481 0 0 0 442.446 25.393 A 5.177 5.177 0 0 0 442.608 24.567 A 5.806 5.806 0 0 1 442.673 24.244 Q 442.792 23.722 443.072 22.752 A 81.504 81.504 0 0 1 443.258 22.117 Q 443.808 20.267 444.508 18.017 A 250.423 250.423 0 0 1 445.178 15.895 Q 445.506 14.874 445.808 13.967 A 180.851 180.851 0 0 0 446.015 13.341 Q 446.394 12.19 446.493 11.824 A 3.234 3.234 0 0 0 446.508 11.767 A 8.551 8.551 0 0 0 446.841 11.188 Q 446.992 10.897 447.098 10.63 A 4.298 4.298 0 0 0 447.208 10.317 Q 447.408 9.667 447.508 9.367 Q 447.807 9.217 447.91 8.984 A 0.63 0.63 0 0 0 447.958 8.817 Q 448.008 8.467 448.008 8.167 A 0.496 0.496 0 0 0 448.06 8.098 Q 448.182 7.915 448.504 7.309 A 54.163 54.163 0 0 0 448.658 7.017 Q 449.208 5.967 449.308 4.767 Z M 344.908 57.467 A 43.618 43.618 0 0 0 346.826 55.162 Q 347.942 53.717 348.758 52.367 A 24.488 24.488 0 0 0 349.911 50.202 Q 350.427 49.116 350.922 47.85 A 48.537 48.537 0 0 0 351.508 46.267 A 7.244 7.244 0 0 0 351.783 45.282 Q 351.949 44.496 352.008 43.517 A 21.301 21.301 0 0 0 352.048 42.231 Q 352.048 41.435 351.984 40.69 A 16.052 16.052 0 0 0 351.958 40.417 Q 351.811 38.995 351.231 38.775 A 0.602 0.602 0 0 0 351.208 38.767 A 3.795 3.795 0 0 0 349.695 38.279 Q 349.049 38.208 348.308 38.317 A 5.235 5.235 0 0 0 346.906 38.746 Q 346.29 39.026 345.64 39.472 A 12.671 12.671 0 0 0 344.608 40.267 Q 341.508 42.867 339.208 46.717 Q 336.908 50.567 334.708 55.467 A 15.643 15.643 0 0 0 334.173 56.944 Q 333.39 59.528 334.058 61.217 Q 334.908 63.367 337.758 62.717 A 6.938 6.938 0 0 0 339.527 62.011 Q 341.213 61.086 343.286 59.111 A 40.218 40.218 0 0 0 344.908 57.467 Z M 70.708 44.667 L 72.908 41.067 A 14.111 14.111 0 0 0 72.334 39.888 Q 71.696 38.729 71.002 38.115 A 3.548 3.548 0 0 0 70.758 37.917 A 6.822 6.822 0 0 0 70.155 37.515 Q 69.521 37.144 69.013 37.08 A 1.644 1.644 0 0 0 68.808 37.067 A 2.17 2.17 0 0 0 68.029 37.236 Q 66.831 37.704 64.958 39.467 A 32.768 32.768 0 0 0 62.996 41.492 Q 61.321 43.367 59.508 45.867 A 76.304 76.304 0 0 0 55.41 52.173 A 88.735 88.735 0 0 0 54.008 54.667 A 57.558 57.558 0 0 0 52.856 57.108 A 48.523 48.523 0 0 0 52.258 58.517 L 51.508 60.367 A 0.293 0.293 0 0 0 51.728 60.666 Q 52.195 60.827 53.658 60.317 Q 55.329 59.734 57.212 58.395 A 24.22 24.22 0 0 0 58.308 57.567 Q 61.708 54.667 65.158 51.167 A 67.048 67.048 0 0 0 67.738 48.405 Q 68.977 46.998 69.969 45.683 A 35.475 35.475 0 0 0 70.708 44.667 Z M 440.746 7.284 A 14.594 14.594 0 0 0 441.208 7.267 A 2.066 2.066 0 0 1 441.299 7.233 Q 441.631 7.118 442.134 7.06 A 8.426 8.426 0 0 1 442.658 7.017 Q 443.608 6.967 444.608 6.917 Q 445.608 6.867 446.208 6.867 Q 447.208 6.667 448.408 6.517 Q 449.608 6.367 450.908 6.217 Q 452.208 6.067 453.508 5.967 Q 454.008 5.967 454.858 5.917 A 20.236 20.236 0 0 0 455.243 5.89 Q 455.552 5.866 455.823 5.835 A 10.124 10.124 0 0 0 456.308 5.767 A 46.647 46.647 0 0 1 456.608 5.796 Q 457.978 5.936 458.716 6.099 A 4.48 4.48 0 0 1 459.158 6.217 Q 459.58 6.357 459.891 6.545 A 2.183 2.183 0 0 1 460.308 6.867 Q 461.408 7.267 462.258 7.267 A 3.912 3.912 0 0 0 462.653 7.245 Q 463.208 7.188 464.011 6.985 A 21.218 21.218 0 0 0 464.808 6.767 Q 465.089 6.598 465.291 6.413 A 1.898 1.898 0 0 0 465.558 6.117 A 0.944 0.944 0 0 0 465.667 5.918 Q 465.781 5.633 465.708 5.267 A 2.72 2.72 0 0 0 464.82 3.762 Q 464.384 3.375 463.749 3.088 A 7.322 7.322 0 0 0 462.508 2.667 A 2.524 2.524 0 0 0 462.307 2.578 Q 461.715 2.344 460.658 2.217 Q 459.408 2.067 458.258 1.967 A 127.395 127.395 0 0 0 457.943 1.94 Q 457.268 1.883 457.016 1.87 A 2.362 2.362 0 0 0 456.908 1.867 L 455.808 1.917 A 111.282 111.282 0 0 0 455.697 1.922 Q 454.623 1.972 453.008 2.067 A 75.194 75.194 0 0 0 452.538 2.096 Q 451.844 2.141 451.222 2.195 A 43.345 43.345 0 0 0 450.008 2.317 Q 448.708 2.467 447.608 2.667 Q 445.808 2.967 444.008 3.217 Q 442.208 3.467 440.408 3.767 A 7.798 7.798 0 0 0 439.868 3.826 Q 438.935 3.964 438.308 4.317 A 2.6 2.6 0 0 0 438.095 4.45 A 1.889 1.889 0 0 0 437.308 5.567 Q 437.232 6.324 437.816 6.737 A 1.986 1.986 0 0 0 438.258 6.967 A 4 4 0 0 0 438.806 7.129 Q 439.603 7.308 440.746 7.284 Z M 136.208 60.367 A 8.878 8.878 0 0 0 138.407 59.571 A 10.386 10.386 0 0 0 138.958 59.267 A 31.474 31.474 0 0 0 140.524 58.272 A 40.587 40.587 0 0 0 141.808 57.367 Q 144.386 55.39 146.373 53.709 A 81.688 81.688 0 0 0 147.008 53.167 Q 148.864 51.564 149.653 48.537 A 15.523 15.523 0 0 0 149.908 47.367 A 9.82 9.82 0 0 0 149.954 46.758 Q 150.009 45.471 149.67 44.578 A 3.41 3.41 0 0 0 149.558 44.317 A 5.668 5.668 0 0 0 148.734 43.07 A 7.794 7.794 0 0 0 147.808 42.167 Q 146.608 41.367 144.558 41.517 Q 142.929 41.636 141.206 42.923 A 12.113 12.113 0 0 0 140.308 43.667 Q 138.246 45.557 136.294 48.556 A 38.962 38.962 0 0 0 135.658 49.567 Q 133.549 53.035 132.45 57.998 A 40.428 40.428 0 0 0 132.308 58.667 A 2.061 2.061 0 0 0 132.272 58.928 Q 132.216 59.747 132.908 60.267 A 1.383 1.383 0 0 0 133.326 60.472 Q 134.217 60.753 136.105 60.387 A 17.03 17.03 0 0 0 136.208 60.367 Z M 183.708 44.867 A 9.396 9.396 0 0 0 184.797 44.277 Q 185.389 43.907 186.008 43.417 A 11.256 11.256 0 0 0 187.784 41.671 A 10.304 10.304 0 0 0 188.058 41.317 A 6.822 6.822 0 0 0 188.459 40.714 Q 188.831 40.079 188.895 39.571 A 1.644 1.644 0 0 0 188.908 39.367 A 2.684 2.684 0 0 0 188.033 37.373 A 4.04 4.04 0 0 0 187.608 37.017 A 2.746 2.746 0 0 0 186.567 36.56 Q 185.553 36.336 184.099 36.669 A 10.745 10.745 0 0 0 183.708 36.767 A 4.511 4.511 0 0 0 182.879 37.092 Q 182.492 37.286 182.074 37.567 A 11.414 11.414 0 0 0 181.208 38.217 Q 179.808 39.367 178.558 40.767 A 34.257 34.257 0 0 0 177.691 41.774 Q 177.027 42.579 176.558 43.267 Q 175.888 44.249 175.976 44.514 A 0.133 0.133 0 0 0 176.008 44.567 A 0.895 0.895 0 0 0 176.273 44.835 Q 176.713 45.139 177.708 45.317 Q 179.058 45.558 180.733 45.473 A 18.443 18.443 0 0 0 180.858 45.467 Q 182.118 45.395 183.04 45.116 A 5.372 5.372 0 0 0 183.708 44.867 Z M 414.808 44.867 A 9.396 9.396 0 0 0 415.897 44.277 Q 416.489 43.907 417.108 43.417 A 11.256 11.256 0 0 0 418.884 41.671 A 10.304 10.304 0 0 0 419.158 41.317 A 6.822 6.822 0 0 0 419.559 40.714 Q 419.931 40.079 419.995 39.571 A 1.644 1.644 0 0 0 420.008 39.367 A 2.684 2.684 0 0 0 419.133 37.373 A 4.04 4.04 0 0 0 418.708 37.017 A 2.746 2.746 0 0 0 417.667 36.56 Q 416.653 36.336 415.199 36.669 A 10.745 10.745 0 0 0 414.808 36.767 A 4.511 4.511 0 0 0 413.979 37.092 Q 413.592 37.286 413.174 37.567 A 11.414 11.414 0 0 0 412.308 38.217 Q 410.908 39.367 409.658 40.767 A 34.257 34.257 0 0 0 408.791 41.774 Q 408.127 42.579 407.658 43.267 Q 406.988 44.249 407.076 44.514 A 0.133 0.133 0 0 0 407.108 44.567 A 0.895 0.895 0 0 0 407.373 44.835 Q 407.813 45.139 408.808 45.317 Q 410.158 45.558 411.833 45.473 A 18.443 18.443 0 0 0 411.958 45.467 Q 413.218 45.395 414.14 45.116 A 5.372 5.372 0 0 0 414.808 44.867 Z" vector-effect="non-scaling-stroke"/></g></svg>